<?xml version="1.0" encoding="UTF-8"?>
<svg id="_レイヤー_2" data-name="レイヤー 2" xmlns="http://www.w3.org/2000/svg" viewBox="0 0 70.1 80.32">
  <defs>
    <style>
      .cls-1 {
        fill: #ffeee8;
      }
    </style>
  </defs>
  <g id="light">
    <g>
      <circle class="cls-1" cx="35.3" cy="40" r="24"/>
      <path class="cls-1" d="M33.57,1l-5.2,9c-.77,1.33,.19,3,1.73,3h10.39c1.54,0,2.5-1.67,1.73-3L37.03,1c-.77-1.33-2.69-1.33-3.46,0Z"/>
      <path class="cls-1" d="M37.03,79.32l5.2-9c.77-1.33-.19-3-1.73-3h-10.39c-1.54,0-2.5,1.67-1.73,3l5.2,9c.77,1.33,2.69,1.33,3.46,0Z"/>
      <path class="cls-1" d="M.27,21.74l5.2,9c.77,1.33,2.69,1.33,3.46,0l5.2-9c.77-1.33-.19-3-1.73-3H2c-1.54,0-2.5,1.67-1.73,3Z"/>
      <path class="cls-1" d="M69.83,57.9l-5.2-9c-.77-1.33-2.69-1.33-3.46,0l-5.2,9c-.77,1.33,.19,3,1.73,3h10.39c1.54,0,2.5-1.67,1.73-3Z"/>
      <path class="cls-1" d="M2,60.9H12.4c1.54,0,2.5-1.67,1.73-3l-5.2-9c-.77-1.33-2.69-1.33-3.46,0L.27,57.9c-.77,1.33,.19,3,1.73,3Z"/>
      <path class="cls-1" d="M68.1,18.74h-10.39c-1.54,0-2.5,1.67-1.73,3l5.2,9c.77,1.33,2.69,1.33,3.46,0l5.2-9c.77-1.33-.19-3-1.73-3Z"/>
    </g>
  </g>
</svg>