<?xml version="1.0" encoding="UTF-8"?>
<svg id="_レイヤー_2" data-name="レイヤー 2" xmlns="http://www.w3.org/2000/svg" viewBox="0 0 481.42 109.83">
  <defs>
    <style>
      .cls-1, .cls-2 {
        fill: #fff;
      }

      .cls-3 {
        fill: #d96236;
      }

      .cls-2 {
        stroke: #000;
        stroke-miterlimit: 10;
      }
    </style>
  </defs>
  <g id="logo">
    <g>
      <path class="cls-3" d="M481.05,.53c-.1-.64-.98-.72-1.22-.13-2.72,6.53-8.31,12.41-12.83,16.02-6.23,4.98-13.98,7.76-21.59,9.69-3.69,.94-7.45,1.53-11.24,1.88l-16.24,1.5c-.64-.04-1.28-.07-1.93-.07H77.11l-.1-5.16c0-11.62-14.78-20.09-25.99-17.03L10.5,20.73c-13.24,3.61-9.32,18.51,3.92,22.13l32.3,10.04c-.47,2.1-.72,4.28-.72,6.52h0c0,2.33,.27,4.6,.78,6.77l-21.14,9.81c-3.77,1.75-5.42,6.26-3.67,10.03s6.26,5.42,10.03,3.67l21.8-10.12c1.27,1.4,2.67,2.68,4.19,3.82l-14.39,13.35c-3.04,2.82-3.22,7.62-.4,10.67,2.82,3.04,7.62,3.22,10.67,.4l19.35-17.94c.19-.18,.37-.36,.54-.55,.75,.06,1.5,.09,2.27,.09H416s.06,0,.08,0l24.24,10.18c3.83,1.61,8.28-.21,9.88-4.04h0c1.61-3.83-.21-8.28-4.04-9.88l-9.89-4.15c1.87-1.72,3.52-3.68,4.91-5.82l20.17,3.58c4.09,.73,8.03-2.02,8.75-6.11,.73-4.09-2.02-8.03-6.11-8.75l-18.06-3.21c.03-.59,.06-1.19,.06-1.79h0c0-8.47-3.52-16.12-9.17-21.58,9.57,1.17,16.89-.87,25.17-3.42,2.53-.78,4.9-1.61,7.3-2.96,4.45-2.5,7.78-6.61,9.43-11.44,2.13-6.23,3.36-13,2.32-19.5Z"/>
      <g>
        <path class="cls-1" d="M128.14,53.66c0-1.48,.27-2.86,.82-4.12s1.37-2.36,2.46-3.28,2.46-1.64,4.11-2.16,3.57-.77,5.75-.77c1.05,0,2,.06,2.86,.19s1.63,.29,2.31,.5,1.27,.46,1.76,.74,.9,.59,1.23,.91c.47,.47,.79,.93,.95,1.39s.25,1,.25,1.61c0,1.08-.3,1.89-.89,2.44s-1.35,.82-2.27,.82c-.48,0-.93-.07-1.32-.2s-.83-.27-1.3-.42-1-.29-1.59-.42-1.33-.2-2.2-.2c-.59,0-1.09,.05-1.48,.14s-.71,.22-.96,.38-.43,.35-.53,.57-.15,.46-.15,.71c0,.53,.2,.97,.6,1.32s.93,.66,1.58,.94,1.41,.54,2.25,.79,1.7,.54,2.58,.88,1.73,.74,2.58,1.21,1.59,1.06,2.25,1.78,1.18,1.59,1.58,2.61,.6,2.25,.6,3.69c0,1.56-.29,3-.86,4.32s-1.42,2.46-2.55,3.41-2.55,1.7-4.27,2.24-3.71,.81-6.01,.81c-1.11,0-2.12-.06-3.05-.19s-1.74-.29-2.45-.5-1.32-.45-1.82-.73-.89-.55-1.17-.83c-.48-.48-.82-.96-1.02-1.42s-.29-1.02-.29-1.68c0-1.11,.3-1.95,.9-2.51s1.36-.84,2.26-.84c.48,0,.93,.07,1.34,.2s.86,.28,1.35,.45,1.07,.31,1.72,.45,1.48,.2,2.46,.2c.67,0,1.24-.05,1.71-.16s.85-.26,1.14-.46,.5-.43,.62-.7,.19-.57,.19-.88c0-.56-.2-1.03-.6-1.41s-.93-.71-1.58-1-1.41-.56-2.25-.81-1.7-.54-2.58-.88-1.73-.74-2.58-1.21-1.59-1.05-2.25-1.76-1.18-1.55-1.58-2.55-.6-2.2-.6-3.61Z"/>
        <path class="cls-1" d="M155.19,60.41c0-2.67,.39-5.07,1.17-7.2s1.91-3.93,3.38-5.4,3.24-2.61,5.32-3.4,4.42-1.18,7.03-1.18,4.78,.38,6.8,1.12,3.73,1.83,5.13,3.23,2.48,3.11,3.23,5.12,1.12,4.26,1.12,6.76c0,2.66-.39,5.04-1.17,7.16s-1.91,3.91-3.38,5.39-3.25,2.61-5.33,3.4-4.43,1.18-7.02,1.18-4.78-.38-6.8-1.12-3.73-1.82-5.13-3.22-2.48-3.1-3.23-5.1-1.12-4.25-1.12-6.75Zm10.17-.52c0,1.55,.17,2.89,.52,4.03s.81,2.09,1.39,2.84,1.27,1.31,2.05,1.68,1.62,.55,2.51,.55,1.7-.18,2.47-.54,1.45-.91,2.03-1.65,1.04-1.68,1.37-2.81,.5-2.46,.5-4-.17-2.89-.52-4.04-.81-2.1-1.39-2.86-1.27-1.32-2.05-1.69-1.62-.55-2.51-.55-1.7,.18-2.47,.54-1.45,.91-2.03,1.66-1.04,1.69-1.37,2.82-.5,2.47-.5,4.02Z"/>
        <path class="cls-1" d="M209.77,64.3c-.97,0-1.71-.32-2.21-.96s-.76-1.49-.76-2.55,.25-1.91,.76-2.55,1.25-.96,2.21-.96h7.69c1.3,0,2.28,.34,2.95,1.01s1.01,1.66,1.01,2.95v8.11c0,.88-.12,1.62-.35,2.24s-.62,1.2-1.17,1.75c-.28,.28-.71,.61-1.3,.98s-1.34,.73-2.25,1.07-2,.62-3.25,.87-2.68,.36-4.29,.36c-2.8,0-5.27-.37-7.42-1.1s-3.95-1.78-5.4-3.14-2.55-3.01-3.3-4.96-1.12-4.13-1.12-6.55,.39-4.87,1.17-7.01,1.96-3.99,3.53-5.55,3.54-2.78,5.92-3.66,5.16-1.31,8.34-1.31c1.08,0,2.09,.08,3.05,.25s1.82,.38,2.59,.63,1.45,.55,2.02,.87c.57,.32,1.02,.64,1.35,.97,.45,.45,.78,.93,.98,1.42s.3,1.1,.3,1.82c0,.52-.08,.98-.25,1.41s-.39,.78-.68,1.08-.63,.53-1.02,.69-.81,.25-1.27,.25c-.48,0-.94-.09-1.37-.27s-.93-.38-1.49-.6-1.23-.42-2-.6-1.73-.27-2.87-.27c-1.22,0-2.32,.18-3.32,.53s-1.85,.89-2.57,1.62-1.27,1.65-1.66,2.78-.59,2.46-.59,4.01,.18,2.93,.55,4.11,.91,2.17,1.62,2.96,1.58,1.4,2.61,1.8,2.21,.61,3.54,.61c.36,0,.68-.02,.96-.05s.52-.07,.7-.12c.22-.05,.4-.1,.54-.16v-4.76h-2.48Z"/>
        <path class="cls-1" d="M225.34,60.41c0-2.67,.39-5.07,1.17-7.2s1.91-3.93,3.38-5.4,3.24-2.61,5.32-3.4,4.42-1.18,7.03-1.18,4.78,.38,6.8,1.12,3.73,1.83,5.13,3.23,2.48,3.11,3.23,5.12,1.12,4.26,1.12,6.76c0,2.66-.39,5.04-1.17,7.16s-1.91,3.91-3.38,5.39-3.25,2.61-5.33,3.4-4.43,1.18-7.02,1.18-4.78-.38-6.8-1.12-3.73-1.82-5.13-3.22-2.48-3.1-3.23-5.1-1.12-4.25-1.12-6.75Zm10.17-.52c0,1.55,.17,2.89,.52,4.03s.81,2.09,1.39,2.84,1.27,1.31,2.05,1.68,1.62,.55,2.51,.55,1.7-.18,2.47-.54,1.45-.91,2.03-1.65,1.04-1.68,1.37-2.81,.5-2.46,.5-4-.17-2.89-.52-4.04-.81-2.1-1.39-2.86-1.27-1.32-2.05-1.69-1.62-.55-2.51-.55-1.7,.18-2.47,.54-1.45,.91-2.03,1.66-1.04,1.69-1.37,2.82-.5,2.47-.5,4.02Z"/>
        <path class="cls-1" d="M262.39,71.03c0-.8,.14-1.54,.43-2.23s.68-1.29,1.18-1.79,1.1-.9,1.79-1.18,1.45-.42,2.26-.42,1.54,.14,2.21,.41,1.26,.66,1.75,1.15,.86,1.08,1.14,1.76,.41,1.42,.41,2.21-.14,1.57-.42,2.26-.67,1.29-1.17,1.79-1.09,.89-1.78,1.18-1.43,.43-2.23,.43-1.56-.14-2.25-.41-1.28-.66-1.77-1.15-.88-1.08-1.15-1.77-.41-1.44-.41-2.25Z"/>
        <path class="cls-1" d="M278.66,48.13c0-1.38,.38-2.45,1.15-3.21s1.84-1.15,3.21-1.15h8.37c2.77,0,5.21,.36,7.34,1.09s3.91,1.76,5.36,3.11,2.54,2.97,3.28,4.88,1.11,4.03,1.11,6.38c0,2.61-.39,4.95-1.18,7.03s-1.95,3.84-3.47,5.3-3.39,2.57-5.6,3.35-4.75,1.17-7.61,1.17h-7.59c-1.38,0-2.45-.38-3.21-1.15s-1.15-1.84-1.15-3.21v-23.58Zm12.33,20.62c1.12,0,2.14-.18,3.04-.54s1.66-.91,2.3-1.64,1.12-1.67,1.46-2.81,.52-2.48,.52-4.03-.15-2.89-.46-3.98-.76-1.98-1.37-2.67-1.37-1.19-2.29-1.51-1.98-.48-3.2-.48h-2.39v17.67h2.39Z"/>
        <path class="cls-1" d="M322.81,68.66h8.79c.94,0,1.69,.3,2.25,.91s.84,1.54,.84,2.79-.28,2.18-.84,2.79-1.31,.91-2.25,.91h-14.37c-1.38,0-2.45-.38-3.21-1.15s-1.15-1.84-1.15-3.21v-23.58c0-1.38,.38-2.45,1.15-3.21s1.84-1.15,3.21-1.15h14.25c.95,0,1.71,.3,2.27,.91s.84,1.54,.84,2.79-.28,2.18-.84,2.79-1.32,.91-2.27,.91h-8.67v4.95h7.24c.91,0,1.64,.31,2.19,.93s.83,1.52,.83,2.71-.28,2.09-.83,2.71-1.29,.93-2.19,.93h-7.24v5.27Z"/>
        <path class="cls-1" d="M337.11,50.48c-.19-.61-.32-1.09-.4-1.43s-.12-.68-.12-1.01c0-.73,.17-1.38,.52-1.95s.79-1.04,1.32-1.42,1.13-.67,1.77-.87,1.26-.29,1.85-.29c.72,0,1.34,.11,1.85,.32s.94,.48,1.27,.81c.36,.36,.64,.79,.83,1.3s.38,1.06,.55,1.65l4.14,14.74c.16,.55,.3,1.1,.43,1.66,.13,.56,.25,1.08,.34,1.55,.11,.55,.21,1.08,.3,1.59h.09c.06-.5,.13-1.02,.21-1.57,.08-.45,.17-.97,.28-1.55,.11-.58,.23-1.14,.38-1.69l3.76-14.77c.14-.56,.31-1.11,.52-1.63s.49-.97,.87-1.35c.33-.33,.75-.59,1.28-.79s1.1-.29,1.72-.29c.58,0,1.18,.09,1.79,.27s1.18,.45,1.68,.8,.91,.79,1.24,1.3,.49,1.12,.49,1.8c0,.27-.04,.57-.12,.93-.08,.35-.2,.82-.38,1.39l-6.24,20.25c-.28,.92-.6,1.72-.95,2.39s-.78,1.26-1.28,1.76c-.53,.53-1.25,.97-2.17,1.32s-2.14,.53-3.67,.53-2.75-.18-3.67-.53-1.64-.79-2.17-1.32c-.5-.5-.93-1.09-1.28-1.76s-.67-1.47-.95-2.39l-6.11-19.78Z"/>
      </g>
      <circle cx="5" cy="27.43" r="5"/>
      <path d="M52.69,13.37c-7.46,7.6-5.66,19.06-1.03,27.62,2.45,4.53,5.69,8.31,10.65,10.11,4.46,1.61,9.82,1.47,12.85-2.61,1.62-2.19,2.51-4.98,3.17-7.6,.79-3.13,1.14-6.36,1.09-9.58-.03-1.93-3.03-1.93-3,0,.08,4.56-.63,9.39-2.6,13.54-.82,1.72-1.95,3.36-3.86,3.93s-4.18,.27-6.1-.32c-4.18-1.28-6.96-4.33-9.08-8.02s-3.94-8.13-4.19-12.6,1.02-9.08,4.22-12.34c1.35-1.38-.77-3.5-2.12-2.12h0Z"/>
      <path d="M7.43,43.13c4.02,.96,8.18,1.3,12.29,1.58,3.81,.26,7.75-.03,10.69-2.74,1.42-1.31-.7-3.43-2.12-2.12-2.51,2.31-6.21,2.04-9.37,1.8-3.59-.27-7.18-.58-10.7-1.42-1.88-.45-2.68,2.44-.8,2.89h0Z"/>
      <path d="M35.39,20.65c-.14,.35-.08,.19-.03,.11-.21,.31-.1,.14-.03,.06,.12-.14-.25,.15-.09,.06,.05-.03,.11-.06,.16-.09,.16-.1-.35,.09-.05,.03,.06-.01,.13-.03,.18-.05,.23-.06-.12,.05-.12,.01,0,0,.33,0,.34,0-.02-.01-.34-.07-.04,0,.08,.02,.16,.03,.24,.05,.16,.04,.32,.09,.47,.15s.31,.12,.46,.18c.08,.03,.17,.07,.25,.1,.17,.07-.29-.14-.05-.02,.13,.06,.26,.13,.39,.2,.05,.03,.11,.07,.16,.1,.17,.09-.21-.2-.08-.06,.02,.02,.16,.16,.17,.16-.05,.02-.16-.33-.07-.08,.05,.13,.14,.07-.02-.08,.06,.06,.07,.27,.09,.34,.01,.07,.04,.17,.04,.24,0-.05-.04-.32,0-.02,.02,.17,.04,.34,.05,.51s.02,.34,.01,.51c0,.1,0,.21-.01,.31,0,.06,0,.12-.02,.19l.02-.15c.04,.1-.1,.44-.13,.53-.12,.35,.13-.23-.04,.09-.04,.07-.09,.14-.12,.21-.11,.2,.06-.05,.06-.06,0,.04-.34,.36-.34,.35-.02-.01,.32-.2,.07-.06-.06,.03-.11,.07-.17,.1-.22,.13,.05-.04,.09-.03-.03,0-.15,.04-.19,.06-.24,.08,.04,.01,.06,0-.07,.04-.23,0-.31,0-.05,0-.31-.04-.11,0,.22,.04-.13-.03-.17-.04-.17-.04-.34-.08-.5-.13-.11-.03-.38-.07-.46-.15,.01,.01,.32,.17,.07,.02-.06-.03-.12-.07-.18-.1-.17-.09,.01-.08,.05,.05,0,0-.2-.2-.21-.21,.05,.02,.17,.29,.07,.07-.02-.04-.07-.14-.09-.17,.15,.15,.09,.25,.05,.09,0,.01-.04-.19-.05-.19,.08,.02,.01,.34,.02,.11,0-.08,0-.16,0-.24,0-.2-.08,.3-.01,.11,0-.01,.07-.23,.07-.23,.04,.02-.16,.32,0,.06,.15-.24,.04,.02-.03,.03,.01,0,.11-.11,.14-.14,.2-.22-.24,.13,0,0-.01,0,.17-.09,.17-.09-.2,.08-.24,.1-.14,.06,.05-.02,.09-.03,.14-.04,.24-.08-.07,.02-.12,0,.02,0,.27,0,.29,0h-.1c-.13-.03-.13-.03,0,0,.12,.04,.13,.04,.01,0-.12-.05-.12-.05,0,0,.07,.05,.2,.17-.06-.06,.21,.18-.13-.26,0,0-.01-.02-.13-.35-.07-.11l-.04-.22c0,.13,0,.12,.01-.03v-.11c-.03,.15-.01,.11,.07-.12l.14-.17c-.11,.11-.08,.08,.1-.08-.67,.4-.98,1.37-.54,2.05s1.33,.97,2.05,.54c1.34-.81,1.49-2.58,.52-3.73-.85-1-2.37-1.17-3.52-.68s-1.94,1.57-2.07,2.86,.54,2.39,1.52,3.08c.43,.3,.96,.49,1.47,.63,.57,.16,1.19,.29,1.78,.27,1.29-.06,2.37-.76,3.06-1.84,.63-.97,.79-2.21,.71-3.34-.04-.59-.08-1.23-.29-1.79-.25-.68-.67-1.16-1.24-1.59-.46-.34-1-.54-1.53-.75-.63-.25-1.25-.44-1.93-.5s-1.34,.1-1.93,.41c-.69,.35-1.11,.96-1.4,1.66s.32,1.68,1.05,1.85c.87,.2,1.53-.27,1.85-1.05h0Z"/>
      <path d="M35.73,22.44c1.93,0,1.93-3,0-3s-1.93,3,0,3h0Z"/>
      <circle class="cls-2" cx="35" cy="21.43" r="1.5"/>
    </g>
  </g>
</svg>